<?xml version="1.0" encoding="utf-8"?>
<!-- Generator: Adobe Illustrator 18.0.0, SVG Export Plug-In . SVG Version: 6.00 Build 0)  -->
<!DOCTYPE svg PUBLIC "-//W3C//DTD SVG 1.1//EN" "http://www.w3.org/Graphics/SVG/1.1/DTD/svg11.dtd">
<svg version="1.1" id="图层_1" xmlns="http://www.w3.org/2000/svg" xmlns:xlink="http://www.w3.org/1999/xlink" x="0px" y="0px"
	 viewBox="0 0 340 90" enable-background="new 0 0 340 90" xml:space="preserve">
<g id="XMLID_192_">
	<path id="XMLID_272_" fill="#65607C" d="M86.9,37l-27-21.9c-5.5-4.4-13.4-4.7-19.1-0.7L8.2,36.9c-1.4,0.9-1.7,2.8-0.8,4.2
		C8,41.9,9,42.3,9.9,42.3c0.6,0,1.2-0.2,1.7-0.5l32.5-22.5c3.6-2.5,8.5-2.3,12,0.5l27.1,21.9c1.3,1,3.2,0.8,4.2-0.4S88.2,38,86.9,37
		z"/>
	<path id="XMLID_273_" fill="#65607C" d="M85,79H69V64c0-1.7-1.3-3-3-3s-3,1.3-3,3v15H52V56h26c1.7,0,3-1.3,3-3s-1.3-3-3-3H52v-8h16
		c1.7,0,3-1.3,3-3s-1.3-3-3-3H28c-1.7,0-3,1.3-3,3s1.3,3,3,3h18v8H22c-1.7,0-3,1.3-3,3s1.3,3,3,3h24v23H35V64c0-1.7-1.3-3-3-3
		s-3,1.3-3,3v15H16c-1.7,0-3,1.3-3,3s1.3,3,3,3h69c1.7,0,3-1.3,3-3S86.7,79,85,79z"/>
	<path id="XMLID_274_" fill="#65607C" d="M153.2,31H132v-9h15c2.3,0,4.5-0.7,6.4-2.1l8.9-6.5c1.3-1,1.6-2.9,0.6-4.2
		s-2.9-1.6-4.2-0.6l-8.9,6.5C149,15.7,148,16,147,16H98c-1.7,0-3,1.3-3,3s1.3,3,3,3h28v9h-20.2c-6,0-10.8,4.8-10.8,10.8V68
		c0,1.7,1.3,3,3,3s3-1.3,3-3V41.8c0-2.6,2.1-4.8,4.8-4.8H126v45c0,1.7,1.3,3,3,3s3-1.3,3-3V37h21.2c2.6,0,4.8,2.1,4.8,4.8v18.5
		c0,2.6-2.1,4.8-4.8,4.8H150c-1.7,0-3,1.3-3,3s1.3,3,3,3h3.2c5.9,0,10.8-4.8,10.8-10.8V41.8C164,35.8,159.2,31,153.2,31z"/>
	<path id="XMLID_277_" fill="#65607C" d="M245,19h-31V8c0-1.7-1.3-3-3-3s-3,1.3-3,3v11h-31c-1.7,0-3,1.3-3,3s1.3,3,3,3h18v9
		c0,0.8,0.3,1.5,0.8,2.1h-7c-2.9,0-5.6,1.1-7.6,3.1s-3.2,4.7-3.2,7.6V82c0,1.7,1.3,3,3,3s3-1.3,3-3V46.8c0-1.3,0.5-2.5,1.4-3.4
		s2.1-1.4,3.4-1.4l44.5,0.2c2.6,0,4.7,2.1,4.7,4.6l0.6,27.2c0,1.3-0.5,2.5-1.4,3.4s-2.1,1.4-3.4,1.4H231c-1.7,0-3,1.3-3,3s1.3,3,3,3
		h2.9c2.9,0,5.6-1.1,7.7-3.2s3.1-4.8,3.1-7.8l-0.7-27c-0.1-5.9-4.8-10.5-10.7-10.5h-5.8c0.6-0.5,1-1.3,1-2.1l0.4-9.1H245
		c1.7,0,3-1.3,3-3S246.7,19,245,19z M223.5,36.2l-23.4-0.1c0.5-0.5,0.9-1.3,0.9-2.1v-9h21.8l-0.4,8.9
		C222.5,34.8,222.9,35.7,223.5,36.2z"/>
	<path id="XMLID_278_" fill="#65607C" d="M229.3,57.3c0.5,0.3,1,0.4,1.5,0.4c1,0,2-0.5,2.6-1.5c0.8-1.4,0.3-3.3-1.1-4.1l-11-6.3
		c-1.4-0.8-3.3-0.3-4.1,1.1c-0.8,1.4-0.3,3.3,1.1,4.1L229.3,57.3z"/>
	<path id="XMLID_279_" fill="#65607C" d="M205.4,46.8c-0.8-1.4-2.7-1.9-4.1-1.1l-11,6.3c-1.4,0.8-1.9,2.7-1.1,4.1
		c0.6,1,1.6,1.5,2.6,1.5c0.5,0,1-0.1,1.5-0.4l11-6.3C205.7,50.1,206.2,48.3,205.4,46.8z"/>
	<path id="XMLID_282_" fill="#65607C" d="M216,58h-10.8c-5.9,0-10.8,4.6-10.8,10.5s5,10.5,10.9,10.5H216c5.9,0,10.8-4.6,10.8-10.5
		S222,58,216,58z M216,73h-10.8c-2.6,0-4.8-1.9-4.8-4.5s2.1-4.5,4.8-4.5H216c2.6,0,4.8,1.9,4.8,4.5S218.7,73,216,73z"/>
	<path id="XMLID_283_" fill="#65607C" d="M276.6,55.1c-0.9-1.4-2.7-1.9-4.1-1l-3.1,1.9l-0.2-19h4.9c1.7,0,3-1.3,3-3s-1.3-3-3-3h-4.9
		L269,13.7c0-1.6-1.4-2.7-3-2.7l0,0c-1.7,0-3,1.1-3,2.8l0.2,17.2H254c-1.7,0-3,1.3-3,3s1.3,3,3,3h9.1l0.3,22.6l-10.2,6.1
		c-1.4,0.9-1.9,2.7-1,4.1c0.6,0.9,1.6,1.5,2.6,1.5c0.5,0,1.1-0.1,1.5-0.4l19.2-11.6C277,58.4,277.4,56.5,276.6,55.1z"/>
	<path id="XMLID_284_" fill="#65607C" d="M332,79h-4.5c-1.9,0-3.6-1.1-4.4-2.9l-4.1-9.9l4.8-4.7c2-2,3.2-4.8,3.2-7.6V37
		c0-1.7-1.3-3-3-3s-3,1.3-3,3v16.8c0,1.3-0.5,2.5-1.4,3.4l-3,3l-1.2-2.9c-0.2-0.6-0.4-1.2-0.4-1.8V25h1.7c3,0,5.8-1.2,7.8-3.4
		l5.5-5.9c1.1-1.2,1.1-3.1-0.1-4.2s-3.1-1.1-4.2,0.1l-5.5,5.9c-0.9,1-2.2,1.5-3.5,1.5H315V8c0-1.7-1.3-3-3-3s-3,1.3-3,3v11h-17.2
		c-5.9,0-10.8,4.8-10.8,10.8v37.5c0,1.5-0.7,2.8-1.8,3.7l-10.9,8.7c-1.3,1-1.5,2.9-0.5,4.2c0.6,0.7,1.5,1.1,2.4,1.1
		c0.7,0,1.3-0.2,1.9-0.7l10.9-8.7c2.6-2.1,4.1-5.1,4.1-8.4V42.5l4.5,0.2c2.5,0.1,4.5,2.2,4.5,4.7v12.4c0,1.6-0.8,3.1-2.2,4l-2.6,1.7
		c-1.4,0.9-1.8,2.8-0.9,4.2c0.6,0.9,1.5,1.4,2.5,1.4c0.6,0,1.1-0.2,1.6-0.5l2.6-1.7c3.1-2,4.9-5.4,4.9-9V47.4
		c0-5.8-4.5-10.5-10.3-10.7l-4.7-0.2v-6.7c0-2.6,2.1-4.8,4.8-4.8H309v30.5c0,1.4,0.3,2.8,0.8,4.1l2.1,5.1l-9.2,9.1
		c-1.2,1.2-1.2,3.1,0,4.2c0.6,0.6,1.4,0.9,2.1,0.9c0.8,0,1.5-0.3,2.1-0.9l7.5-7.4l3.2,7.7c1.7,4,5.6,6.6,9.9,6.6h4.5
		c1.7,0,3-1.3,3-3S333.7,79,332,79z"/>
</g>
</svg>
